<svg width="143" height="54" viewBox="0 0 143 54" fill="none" xmlns="http://www.w3.org/2000/svg">
<g id="Levels">
<g id="Battery">
<rect id="Border" opacity="0.35" x="83.5" y="23.5" width="24" height="12" rx="3.8" stroke="white"/>
<path id="Cap" opacity="0.4" d="M109 27.7812V31.8567C109.805 31.5116 110.328 30.7086 110.328 29.819C110.328 28.9294 109.805 28.1264 109 27.7812Z" fill="white"/>
<rect id="Capacity" x="85" y="25" width="21" height="9" rx="2.5" fill="white"/>
</g>
<path id="Wifi" fill-rule="evenodd" clip-rule="evenodd" d="M67.2705 26.103C69.7576 26.1031 72.1496 27.0252 73.9521 28.6787C74.0879 28.8063 74.3048 28.8047 74.4385 28.6751L75.736 27.4116C75.8037 27.3458 75.8414 27.2568 75.8409 27.1641C75.8403 27.0714 75.8015 26.9827 75.733 26.9178C71.002 22.543 63.5383 22.543 58.8073 26.9178C58.7387 26.9827 58.6999 27.0713 58.6992 27.164C58.6986 27.2567 58.7363 27.3458 58.8039 27.4116L60.1018 28.6751C60.2354 28.8049 60.4525 28.8065 60.5881 28.6787C62.3909 27.0251 64.7832 26.103 67.2705 26.103ZM67.2672 30.3233C68.6245 30.3232 69.9334 30.8349 70.9395 31.7591C71.0756 31.8902 71.2899 31.8874 71.4226 31.7527L72.7099 30.4333C72.7777 30.3641 72.8153 30.2703 72.8143 30.1727C72.8133 30.0752 72.7738 29.9821 72.7047 29.9143C69.6408 27.0234 64.8961 27.0234 61.8323 29.9143C61.7631 29.9821 61.7236 30.0752 61.7227 30.1728C61.7218 30.2704 61.7595 30.3642 61.8274 30.4333L63.1143 31.7527C63.247 31.8874 63.4614 31.8902 63.5974 31.7591C64.6029 30.8355 65.9107 30.3238 67.2672 30.3233ZM69.7916 33.1168C69.7935 33.2222 69.7565 33.3237 69.6892 33.3976L67.5125 35.8523C67.4487 35.9244 67.3617 35.965 67.2709 35.965C67.1802 35.965 67.0932 35.9244 67.0294 35.8523L64.8523 33.3976C64.7851 33.3237 64.7481 33.2221 64.7501 33.1167C64.7521 33.0114 64.7929 32.9116 64.8629 32.841C66.253 31.5271 68.2889 31.5271 69.679 32.841C69.7489 32.9117 69.7897 33.0115 69.7916 33.1168Z" fill="white"/>
<path id="Cellular Connection" fill-rule="evenodd" clip-rule="evenodd" d="M51.2 24.6814C51.2 24.0483 50.7224 23.5352 50.1333 23.5352H49.0667C48.4776 23.5352 48 24.0483 48 24.6814V34.6153C48 35.2484 48.4776 35.7616 49.0667 35.7616H50.1333C50.7224 35.7616 51.2 35.2484 51.2 34.6153V24.6814ZM43.7659 25.9804H44.8326C45.4217 25.9804 45.8992 26.5059 45.8992 27.1542V34.5878C45.8992 35.2361 45.4217 35.7616 44.8326 35.7616H43.7659C43.1768 35.7616 42.6992 35.2361 42.6992 34.5878V27.1542C42.6992 26.5059 43.1768 25.9804 43.7659 25.9804ZM39.4341 28.6295H38.3674C37.7783 28.6295 37.3008 29.1617 37.3008 29.8182V34.5729C37.3008 35.2294 37.7783 35.7616 38.3674 35.7616H39.4341C40.0232 35.7616 40.5008 35.2294 40.5008 34.5729V29.8182C40.5008 29.1617 40.0232 28.6295 39.4341 28.6295ZM34.1333 31.0748H33.0667C32.4776 31.0748 32 31.5994 32 32.2465V34.5899C32 35.237 32.4776 35.7616 33.0667 35.7616H34.1333C34.7224 35.7616 35.2 35.237 35.2 34.5899V32.2465C35.2 31.5994 34.7224 31.0748 34.1333 31.0748Z" fill="white"/>
</g>
</svg>
